Coordinates
version=1
nRows=32
nColumns=22
inDegrees=yes

Units are S.I. units (second, meters, Newtons, ...)
If the header above contains a line with 'inDegrees', this indicates whether rotational values are in degrees (yes) or radians (no).

endheader
time	pelvis_tilt	pelvis_list	pelvis_rotation	pelvis_tx	pelvis_ty	pelvis_tz	hip_flexion_r	hip_adduction_r	hip_rotation_r	knee_angle_r	ankle_angle_r	subtalar_angle_r	hip_flexion_l	hip_adduction_l	hip_rotation_l	knee_angle_l	ankle_angle_l	subtalar_angle_l	lumbar_extension	lumbar_bending	lumbar_rotation
      3.14000000	      1.94899552	     -4.37479658	     -0.69312441	     -0.32585261	      1.01595136	     -0.28156499	     -1.73962113	      9.74621732	     -4.91616971	    -12.74516266	     11.61379770	     -5.34197637	     21.91105572	     -6.90424585	     -4.93174219	    -29.04414183	      8.41365655	      5.46475815	    -16.03947065	      5.54968811	     10.63581598
      3.15000000	      1.93779177	     -4.41815314	     -0.73639323	     -0.32043597	      1.01552166	     -0.28163602	     -2.26079786	      9.78278550	     -4.83752685	    -12.41574288	     11.79973953	     -5.21533823	     22.13198450	     -6.78924232	     -5.34338944	    -27.58385801	      8.26475864	      5.73766047	    -16.11674187	      5.57889537	     10.58475392
      3.16000000	      1.89302170	     -4.46509401	     -0.78699499	     -0.31495156	      1.01498478	     -0.28172481	     -2.72791054	      9.81751663	     -4.78303442	    -12.12733183	     11.99231692	     -5.10630507	     22.36815140	     -6.67729926	     -5.79852199	    -26.16074975	      8.06611845	      5.95631826	    -16.15052589	      5.60600426	     10.55131310
      3.17000000	      1.85645714	     -4.52061604	     -0.84172861	     -0.30937675	      1.01440131	     -0.28184288	     -3.20302773	      9.85667624	     -4.72343136	    -11.85085690	     12.19418800	     -4.98000836	     22.57644074	     -6.57291721	     -6.28922331	    -24.78847584	      7.88387295	      6.18718486	    -16.18808809	      5.64112001	     10.50240341
      3.18000000	      1.80446322	     -4.58381076	     -0.90585779	     -0.30373846	      1.01373059	     -0.28198893	     -3.64507360	      9.89803291	     -4.66799688	    -11.61241643	     12.40637284	     -4.85470304	     22.78584115	     -6.47179898	     -6.78207863	    -23.47716736	      7.71364518	      6.40693488	    -16.20515329	      5.68456553	     10.44900675
      3.19000000	      1.74273286	     -4.64904090	     -0.98658512	     -0.29804033	      1.01299038	     -0.28215088	     -4.05984251	      9.93559511	     -4.60508627	    -11.41249288	     12.63364282	     -4.72514786	     22.98460769	     -6.36896591	     -7.25866785	    -22.22603442	      7.56825693	      6.62888213	    -16.20969391	      5.72741603	     10.39810879
      3.20000000	      1.64361292	     -4.71553928	     -1.08772443	     -0.29232435	      1.01212981	     -0.28229178	     -4.39964550	      9.97220010	     -4.50862062	    -11.28349232	     12.87269004	     -4.63238559	     23.20260523	     -6.26258447	     -7.66264677	    -21.03646875	      7.44011092	      6.79600435	    -16.17248956	      5.76527820	     10.32283329
      3.21000000	      1.57841142	     -4.77454145	     -1.22557838	     -0.28651151	      1.01127652	     -0.28241114	     -4.77377247	      9.99091190	     -4.41630723	    -11.17024112	     13.14421250	     -4.48457340	     23.35711591	     -6.15848756	     -8.04927439	    -19.92864212	      7.38510414	      7.03494178	    -16.16984371	      5.78198832	     10.31117713
      3.22000000	      1.48065831	     -4.83840431	     -1.38522817	     -0.28069477	      1.01031701	     -0.28251146	     -5.07224589	     10.01169840	     -4.28014178	    -11.13993899	     13.42655823	     -4.38186614	     23.52589825	     -6.05622424	     -8.31111028	    -18.90015310	      7.36245731	      7.20250557	    -16.13505499	      5.79980341	     10.26602568
      3.23000000	      1.38531484	     -4.89842420	     -1.57884020	     -0.27481312	      1.00931529	     -0.28257075	     -5.35547220	     10.02314330	     -4.11025976	    -11.15520120	     13.73036794	     -4.28001295	     23.66350467	     -5.95844144	     -8.47756309	    -17.96275441	      7.38745736	      7.35279484	    -16.10318247	      5.80256308	     10.24081639
      3.24000000	      1.29711715	     -4.95780389	     -1.79731859	     -0.26885201	      1.00828432	     -0.28259639	     -5.62900580	     10.02936915	     -3.91602348	    -11.21667227	     14.04297565	     -4.17622683	     23.76620633	     -5.86743182	     -8.53827051	    -17.12765544	      7.44742126	      7.48352635	    -16.07644967	      5.79300091	     10.23566932
      3.25000000	      1.21833136	     -5.01919559	     -2.03690163	     -0.26279651	      1.00722887	     -0.28259240	     -5.89575977	     10.03294568	     -3.69799040	    -11.32594464	     14.36094430	     -4.07524176	     23.83070959	     -5.78717999	     -8.49338020	    -16.40381967	      7.52680281	      7.58531559	    -16.05593669	      5.77420480	     10.24110385
      3.26000000	      1.15743014	     -5.08137376	     -2.29670133	     -0.25662109	      1.00616752	     -0.28256001	     -6.16831444	     10.03160703	     -3.45844779	    -11.47946609	     14.67731186	     -3.96797939	     23.84763730	     -5.71831483	     -8.35465407	    -15.80555119	      7.61126367	      7.65796194	    -16.04915539	      5.74531710	     10.25592182
      3.27000000	      1.12085165	     -5.14745376	     -2.56773448	     -0.25030396	      1.00511131	     -0.28251025	     -6.46030418	     10.02859468	     -3.19945426	    -11.66742660	     14.98865041	     -3.84918076	     23.81190065	     -5.66320991	     -8.13976277	    -15.34284275	      7.68244133	      7.69274120	    -16.05831505	      5.70884237	     10.27553882
      3.28000000	      1.11668378	     -5.21579059	     -2.85477704	     -0.24384238	      1.00408012	     -0.28246056	     -6.78434641	     10.01819302	     -2.93063313	    -11.88019060	     15.27434348	     -3.70370867	     23.71665253	     -5.62217672	     -7.87994469	    -15.02739072	      7.72139454	      7.67017110	    -16.09597331	      5.66930370	     10.29280818
      3.29000000	      1.07784059	     -5.31187073	     -3.13107325	     -0.23722900	      1.00294800	     -0.28239951	     -7.07913663	     10.04084294	     -2.67292981	    -12.09639389	     15.54576878	     -3.65835922	     23.65301390	     -5.61583870	     -7.53955084	    -14.88244527	      7.71045881	      7.64340026	    -16.07014627	      5.65392562	     10.30886896
      3.30000000	      1.16073500	     -5.37377990	     -3.45328032	     -0.23042771	      1.00202924	     -0.28229117	     -7.51459100	     10.00491219	     -2.35001829	    -12.32443450	     15.80998764	     -3.41728906	     23.40971177	     -5.60329293	     -7.31581278	    -14.85122927	      7.59020308	      7.38723373	    -16.17329837	      5.57622013	     10.33451178
      3.31000000	      1.20747465	     -5.45671401	     -3.75950171	     -0.22350580	      1.00102882	     -0.28219158	     -7.91496616	      9.99297742	     -2.04797709	    -12.55804566	     16.04399536	     -3.24367977	     23.21581964	     -5.61984132	     -7.06079558	    -14.99600683	      7.35385583	      7.05622480	    -16.21430028	      5.52021090	     10.34250163
      3.32000000	      1.25869229	     -5.53562255	     -4.07253029	     -0.21646057	      1.00004775	     -0.28206788	     -8.31888288	      9.97223207	     -1.73579584	    -12.80818860	     16.25714935	     -3.07160323	     23.02026056	     -5.65498419	     -6.87908087	    -15.29109360	      6.95660612	      6.59398092	    -16.24434684	      5.44930007	     10.33320830
      3.33000000	      1.31616632	     -5.60212032	     -4.38202766	     -0.20928895	      0.99911058	     -0.28194377	     -8.73172624	      9.93431866	     -1.42119374	    -13.06483725	     16.44550851	     -2.87389064	     22.83420759	     -5.69840574	     -6.78335316	    -15.72843588	      6.36792328	      5.93740093	    -16.26292776	      5.35819532	     10.30449045
      3.34000000	      1.37106572	     -5.65877272	     -4.66683910	     -0.20200559	      0.99821713	     -0.28184741	     -9.14241082	      9.88634277	     -1.12987317	    -13.32269224	     16.61197941	     -2.66469841	     22.69391911	     -5.75042574	     -6.77455150	    -16.31573856	      5.59567316	      5.12821650	    -16.25807706	      5.25541908	     10.24363592
      3.35000000	      1.41996167	     -5.69557096	     -4.92953690	     -0.19462374	      0.99739282	     -0.28176250	     -9.53609871	      9.82089079	     -0.84300746	    -13.60182597	     16.73636072	     -2.44102154	     22.60206473	     -5.80441375	     -6.84562461	    -17.01835684	      4.66911105	      4.21265033	    -16.22889543	      5.12919538	     10.14354927
      3.36000000	      1.46454282	     -5.70187264	     -5.16494413	     -0.18715007	      0.99666277	     -0.28170426	     -9.90861300	      9.72783115	     -0.55920952	    -13.90688267	     16.81905977	     -2.19934334	     22.56496484	     -5.84979374	     -7.00171568	    -17.82572593	      3.66487043	      3.25102177	    -16.17622725	      4.96951342	      9.98843277
      3.37000000	      1.51126715	     -5.68666427	     -5.35459932	     -0.17957987	      0.99604897	     -0.28172902	    -10.27250862	      9.61661223	     -0.30877584	    -14.22511183	     16.85267265	     -1.93131223	     22.57902226	     -5.87965279	     -7.16508231	    -18.72794790	      2.68871512	      2.27752191	    -16.10864763	      4.79628286	      9.79614297
      3.38000000	      1.56258476	     -5.64537289	     -5.50058953	     -0.17192423	      0.99556956	     -0.28182688	    -10.61858086	      9.48320492	     -0.08271562	    -14.57701810	     16.83342671	     -1.63057362	     22.62397068	     -5.88152566	     -7.29748052	    -19.69016978	      1.83772579	      1.33974177	    -16.03149676	      4.60080590	      9.55735251
      3.39000000	      1.62022309	     -5.57867078	     -5.60153883	     -0.16418548	      0.99523504	     -0.28202633	    -10.94513863	      9.32624539	      0.11144412	    -14.96745538	     16.76146106	     -1.28759487	     22.68126375	     -5.84015734	     -7.34861677	    -20.68617872	      1.18724798	      0.45579205	    -15.94876590	      4.38735789	      9.28425340
      3.40000000	      1.68311513	     -5.48972621	     -5.66375299	     -0.15638638	      0.99505254	     -0.28233315	    -11.24053175	      9.14697549	      0.27275374	    -15.41312728	     16.62831019	     -0.89615402	     22.72892779	     -5.74688195	     -7.28790672	    -21.67902158	      0.75796700	     -0.35531982	    -15.86486759	      4.16009429	      8.99387312
      3.41000000	      1.75093549	     -5.38696961	     -5.68959363	     -0.14853326	      0.99501422	     -0.28279734	    -11.50142237	      8.94754004	      0.38870407	    -15.91760432	     16.43465275	     -0.44931317	     22.75431203	     -5.60363148	     -7.13478807	    -22.65116969	      0.57037971	     -1.08379963	    -15.78330037	      3.93774835	      8.70456823
      3.42000000	      1.81676173	     -5.27580831	     -5.70382978	     -0.14064721	      0.99510827	     -0.28333863	    -11.71404138	      8.73542116	      0.49653685	    -16.49615346	     16.20346292	      0.06536565	     22.73914814	     -5.42924181	     -6.93656913	    -23.56525287	      0.62208935	     -1.72473917	    -15.70016338	      3.71233919	      8.44246592
      3.43000000	      1.87024513	     -5.16085714	     -5.71579447	     -0.13275722	      0.99532718	     -0.28396577	    -11.85460016	      8.51032891	      0.58098148	    -17.16626245	     15.90704800	      0.66294109	     22.68023612	     -5.23747928	     -6.74904808	    -24.39454508	      0.83810863	     -2.25885199	    -15.60913344	      3.49146088	      8.21903636
      3.44000000	      1.90261589	     -5.04691595	     -5.74194481	     -0.12488293	      0.99564892	     -0.28465525	    -11.90360826	      8.27482566	      0.65412470	    -17.94645903	     15.54654169	      1.34724062	     22.57119905	     -5.04550979	     -6.61597167	    -25.11287911	      1.20077374	     -2.67909148	    -15.50253152	      3.28092970	      8.05311352
      3.45000000	      1.90796738	     -4.93510113	     -5.79394132	     -0.11704422	      0.99606134	     -0.28539202	    -11.84634616	      8.02843434	      0.72637700	    -18.84871012	     15.11369171	      2.10961527	     22.40909063	     -4.86384060	     -6.57174344	    -25.70244696	      1.66432386	     -2.99830048	    -15.37492401	      3.08137000	      7.95360851
